<?xml version="1.0" encoding="UTF-8" standalone="no"?>
<svg
   xmlns:dc="http://purl.org/dc/elements/1.1/"
   xmlns:cc="http://creativecommons.org/ns#"
   xmlns:rdf="http://www.w3.org/1999/02/22-rdf-syntax-ns#"
   xmlns:svg="http://www.w3.org/2000/svg"
   xmlns="http://www.w3.org/2000/svg"
   xmlns:sodipodi="http://sodipodi.sourceforge.net/DTD/sodipodi-0.dtd"
   xmlns:inkscape="http://www.inkscape.org/namespaces/inkscape"
   height="231.07874"
   width="231.07872"
   version="1.1"
   x="0px"
   y="0px"
   viewBox="0 0 77.02624 77.026244"
   enable-background="new 0 0 100 100"
   xml:space="preserve"
   id="svg70"
   sodipodi:docname="logo.svg"
   inkscape:version="0.92.5 (2060ec1f9f, 2020-04-08)"
   style="fill:#000000"><metadata
     id="metadata76"><rdf:RDF><cc:Work
         rdf:about=""><dc:format>image/svg+xml</dc:format><dc:type
           rdf:resource="http://purl.org/dc/dcmitype/StillImage" /><dc:title></dc:title></cc:Work></rdf:RDF></metadata><defs
     id="defs74" /><sodipodi:namedview
     pagecolor="#ffffff"
     bordercolor="#666666"
     borderopacity="1"
     objecttolerance="10"
     gridtolerance="10"
     guidetolerance="10"
     inkscape:pageopacity="0"
     inkscape:pageshadow="2"
     inkscape:window-width="2556"
     inkscape:window-height="1414"
     id="namedview72"
     showgrid="false"
     inkscape:zoom="2.0416667"
     inkscape:cx="324.03695"
     inkscape:cy="120.37357"
     inkscape:window-x="1440"
     inkscape:window-y="0"
     inkscape:window-maximized="0"
     inkscape:current-layer="svg70"
     fit-margin-top="0"
     fit-margin-left="0"
     fit-margin-right="0"
     fit-margin-bottom="0" /><rect
     style="opacity:1;fill:#cccccc;fill-opacity:1;stroke:none;stroke-width:0.54869187;stroke-linecap:square;stroke-linejoin:bevel;stroke-miterlimit:4;stroke-dasharray:none;stroke-dashoffset:0;stroke-opacity:0.96428576;paint-order:markers stroke fill"
     id="rect389"
     width="25.242624"
     height="25.005606"
     x="41.844463"
     y="-12.502803"
     transform="rotate(45)" /><path
     d="m 36.294549,33.328197 c -9.539078,6.12424 -19.078156,12.248481 -28.617235,18.37272 11.018127,-2.667624 22.036253,-5.335249 33.05438,-8.002873 9.539079,-6.12424 19.078158,-12.24848 28.617237,-18.37272 -11.018128,2.667625 -22.036255,5.335249 -33.054382,8.002873 z"
     id="path68"
     inkscape:connector-curvature="0"
     style="stroke:#f9f9f9;stroke-width:1;stroke-miterlimit:4;stroke-dasharray:none;stroke-opacity:1" /><path
     id="path343"
     d="M 38.513122,0 C 17.243095,0 0,17.242325 0,38.513122 c 0,21.269257 17.243095,38.513124 38.513122,38.513124 21.270027,0 38.513119,-17.243867 38.513119,-38.513124 C 77.026241,17.242325 59.783149,0 38.513122,0 Z m 2.448664,74.079986 -2.292858,-2.53613 -2.60524,2.53537 C 18.397948,72.832036 4.199322,58.304234 2.945483,40.961786 l 2.5369,-2.604471 -2.53767,-2.294398 C 4.193518,18.396364 18.720008,4.197883 36.063689,2.943942 l 2.293627,2.53844 2.605242,-2.53844 c 17.666755,1.24836 31.864503,15.775295 33.118203,33.118975 l -2.5369,2.60601 2.53536,2.29363 C 72.831771,58.628393 58.304774,72.826496 40.961786,74.079986 Z"
     inkscape:connector-curvature="0"
     style="clip-rule:evenodd;fill-rule:evenodd;stroke:none;stroke-width:1;stroke-miterlimit:4;stroke-dasharray:none;stroke-opacity:1"
     sodipodi:nodetypes="sssssccccccccccccc" /><path
     id="path343-3"
     d="m 38.513123,5.494524 c -18.235511,0 -33.018598,14.782427 -33.018598,33.018599 0,18.234851 14.783087,33.018593 33.018598,33.018593 18.235511,0 33.018598,-14.783742 33.018598,-33.018593 0,-18.236172 -14.783087,-33.018599 -33.018598,-33.018599 z m 2.099323,63.511272 -1.965747,-2.17431 -2.233559,2.17365 C 21.267706,67.935886 9.094745,55.480708 8.019787,40.612445 l 2.17497,-2.232903 -2.17563,-1.967063 C 9.08977,21.266347 21.543819,9.093511 36.413142,8.018465 l 1.966403,2.17629 2.23356,-2.17629 C 55.75941,9.088727 67.931621,21.543157 69.006461,36.412479 l -2.17497,2.234219 2.17365,1.966407 c -1.06949,15.145517 -13.523969,27.31803 -28.392695,28.392691 z"
     inkscape:connector-curvature="0"
     style="clip-rule:evenodd;fill:#ffffff;fill-opacity:1;fill-rule:evenodd;stroke:none;stroke-width:0.85733372;stroke-miterlimit:4;stroke-dasharray:none;stroke-opacity:1"
     sodipodi:nodetypes="sssssccccccccccccc" /></svg>